<svg aria-hidden="true" style="width:0;height:0;position:absolute" xmlns="http://www.w3.org/2000/svg" overflow="hidden"><defs><symbol id="logo-icon" viewBox="0 0 16 16"><path d="M14.541.157h-2.005a1.11 1.11 0 0 0-1.12 1.098v1.964a1.11 1.11 0 0 0 1.12 1.098h2.005a1.11 1.11 0 0 0 1.12-1.098V1.255a1.11 1.11 0 0 0-1.12-1.098ZM3.365 11.52H1.206C.54 11.52 0 12.012 0 12.618v1.964c0 .607.54 1.098 1.206 1.098h2.16c.665 0 1.205-.491 1.205-1.098v-1.964c0-.607-.54-1.098-1.206-1.098ZM3.125 5.79H1.12C.501 5.79 0 6.283 0 6.89v1.964a1.11 1.11 0 0 0 1.12 1.098h2.005a1.11 1.11 0 0 0 1.12-1.098V6.89c0-.607-.502-1.098-1.12-1.098ZM8.883 11.49H6.878c-.618 0-1.12.49-1.12 1.097v1.964a1.11 1.11 0 0 0 1.12 1.098h2.005a1.11 1.11 0 0 0 1.12-1.098v-1.964a1.11 1.11 0 0 0-1.12-1.098ZM3.125.043H1.12C.501.043 0 .535 0 1.141v1.964a1.11 1.11 0 0 0 1.12 1.098h2.005a1.11 1.11 0 0 0 1.12-1.098V1.141c0-.606-.502-1.098-1.12-1.098ZM9.038 5.849H7.033c-.618 0-1.12.491-1.12 1.097v1.965a1.11 1.11 0 0 0 1.12 1.098h2.005c.619 0 1.12-.492 1.12-1.098V6.946c0-.606-.501-1.097-1.12-1.097ZM14.667 11.49h-2.005c-.619 0-1.12.49-1.12 1.097v1.964a1.11 1.11 0 0 0 1.12 1.098h2.005a1.11 1.11 0 0 0 1.12-1.098v-1.964c0-.607-.502-1.098-1.12-1.098ZM8.795.112H6.791c-.619 0-1.12.491-1.12 1.098v1.964a1.11 1.11 0 0 0 1.12 1.098h2.004a1.11 1.11 0 0 0 1.12-1.098V1.21c0-.607-.501-1.098-1.12-1.098ZM14.522 5.963h-2.005c-.618 0-1.12.491-1.12 1.098v1.964a1.11 1.11 0 0 0 1.12 1.098h2.005a1.11 1.11 0 0 0 1.12-1.098V7.061c0-.607-.502-1.098-1.12-1.098Z"/></symbol><symbol id="cart-icon" viewBox="0 0 28 28"><path d="M22.167 8.167h-3.5V7a4.667 4.667 0 0 0-9.334 0v1.167h-3.5a1.167 1.167 0 0 0-1.166 1.166v12.834a3.5 3.5 0 0 0 3.5 3.5h11.666a3.5 3.5 0 0 0 3.5-3.5V9.333a1.167 1.167 0 0 0-1.166-1.166ZM11.667 7a2.333 2.333 0 1 1 4.666 0v1.167h-4.666V7ZM21 22.167a1.166 1.166 0 0 1-1.167 1.166H8.167A1.167 1.167 0 0 1 7 22.167V10.5h2.333v1.167a1.166 1.166 0 1 0 2.334 0V10.5h4.666v1.167a1.166 1.166 0 0 0 2.334 0V10.5H21v11.667Z"/></symbol><symbol id="hamburger-icon-open" viewBox="0 0 24 24"><path d="M2 5.995c0-.55.446-.995.995-.995h8.01a.995.995 0 1 1 0 1.99h-8.01A.995.995 0 0 1 2 5.995ZM2 12c0-.55.446-.995.995-.995h18.01a.995.995 0 1 1 0 1.99H2.995A.995.995 0 0 1 2 12Zm.995 5.01a.995.995 0 1 0 0 1.99h12.01a.995.995 0 1 0 0-1.99H2.995Z"/></symbol><symbol id="x-button" viewBox="0 0 32 32"><path stroke-linejoin="round" stroke-linecap="round" stroke-width="2.667" d="m25.25 6.75-18.5 18.5M6.75 6.75l18.5 18.5"/></symbol><symbol id="cart-icon-hamburger" viewBox="0 0 28 28"><path d="M22.167 8.167h-3.5V7a4.667 4.667 0 0 0-9.334 0v1.167h-3.5a1.167 1.167 0 0 0-1.166 1.166v12.834a3.5 3.5 0 0 0 3.5 3.5h11.666a3.5 3.5 0 0 0 3.5-3.5V9.333a1.167 1.167 0 0 0-1.166-1.166ZM11.667 7a2.333 2.333 0 1 1 4.666 0v1.167h-4.666V7ZM21 22.167a1.166 1.166 0 0 1-1.167 1.166H8.167A1.167 1.167 0 0 1 7 22.167V10.5h2.333v1.167a1.166 1.166 0 1 0 2.334 0V10.5h4.666v1.167a1.166 1.166 0 0 0 2.334 0V10.5H21v11.667Z"/></symbol></defs></svg>