<svg aria-hidden="true" style="position: absolute; width: 0; height: 0; overflow: hidden;" version="1.1" xmlns="http://www.w3.org/2000/svg" xmlns:xlink="http://www.w3.org/1999/xlink">
<defs>

<!-- Logo -->
<symbol id="logo" viewBox="0 0 16 16">
<path d="M15.0411 0.156924H13.0364C12.4178 0.156924 11.9163 0.648347 11.9163 1.25459V3.21923C11.9163 3.82547 12.4178 4.31692 13.0364 4.31692H15.0411C15.6597 4.31692 16.1612 3.82547 16.1612 3.21923V1.25459C16.1612 0.648347 15.6597 0.156924 15.0411 0.156924Z" fill="#AE1332"/>
<path d="M3.86519 11.52H1.70624C1.04005 11.52 0.5 12.0115 0.5 12.6177V14.5823C0.5 15.1886 1.04005 15.68 1.70624 15.68H3.86519C4.53138 15.68 5.07143 15.1886 5.07143 14.5823V12.6177C5.07143 12.0115 4.53138 11.52 3.86519 11.52Z" fill="#AE1332"/>
<path d="M3.6248 5.79091H1.62007C1.00149 5.79091 0.5 6.28233 0.5 6.88857V8.85321C0.5 9.45945 1.0016 9.95091 1.62018 9.95091H3.6248C4.24341 9.95091 4.7449 9.45945 4.7449 8.85321V6.88857C4.7449 6.28233 4.24341 5.79091 3.6248 5.79091Z" fill="#AE1332"/>
<path d="M9.38295 11.4891H7.37822C6.75964 11.4891 6.25815 11.9805 6.25815 12.5868L6.25804 14.5514C6.25804 15.1576 6.75975 15.6491 7.37833 15.6491H9.38295C10.0016 15.6491 10.5031 15.1576 10.5031 14.5514V12.5868C10.5031 11.9805 10.0016 11.4891 9.38295 11.4891Z" fill="#AE1332"/>
<path d="M3.6248 0.0431361H1.62007C1.00149 0.0431361 0.5 0.534559 0.5 1.1408V3.10544C0.5 3.71168 1.0016 4.20314 1.62018 4.20314H3.6248C4.24341 4.20314 4.7449 3.71168 4.7449 3.10544V1.1408C4.7449 0.534559 4.24341 0.0431361 3.6248 0.0431361Z" fill="#AE1332"/>
<path d="M9.53794 5.84874H7.53321C6.91463 5.84874 6.41314 6.34016 6.41314 6.9464V8.91104C6.41314 9.51728 6.91474 10.0087 7.53332 10.0087H9.53794C10.1566 10.0087 10.658 9.51728 10.658 8.91104V6.9464C10.658 6.34016 10.1566 5.84874 9.53794 5.84874Z" fill="#AE1332"/>
<path d="M15.1667 11.4891H13.1619C12.5434 11.4891 12.0419 11.9805 12.0419 12.5868V14.5514C12.0419 15.1576 12.5435 15.6491 13.162 15.6491H15.1667C15.7853 15.6491 16.2868 15.1576 16.2868 14.5514V12.5868C16.2868 11.9805 15.7853 11.4891 15.1667 11.4891Z" fill="#AE1332"/>
<path d="M9.2953 0.111854H7.29056C6.67198 0.111854 6.1705 0.603277 6.1705 1.20952V3.17416C6.1705 3.7804 6.6721 4.27185 7.29068 4.27185H9.2953C9.91391 4.27185 10.4154 3.78003 10.4154 3.17379V1.20952C10.4154 0.603277 9.91391 0.111854 9.2953 0.111854Z" fill="#AE1332"/>
<path d="M15.0219 5.96291H13.0171C12.3985 5.96291 11.8971 6.45433 11.8971 7.06057V9.02521C11.8971 9.63145 12.3987 10.1229 13.0172 10.1229H15.0219C15.6405 10.1229 16.142 9.63145 16.142 9.02521V7.06057C16.142 6.45433 15.6405 5.96291 15.0219 5.96291Z" fill="#AE1332"/>
</symbol>


<!-- Social Links Icon -->
<symbol id="facebook" viewBox="0 0 28 28">
<path d="M17.08 4.06023C17.29 4.06023 17.5 4.06023 17.92 4.06023V7.21023C17.71 7.21023 17.29 7.21023 16.87 7.21023C16.45 7.21023 16.03 7.21023 15.82 7.42023C15.61 7.63023 15.61 7.84023 15.61 8.33023C15.61 8.75023 15.61 9.03023 15.61 9.45023H17.92V12.1102H15.61V23.6602H12.04V12.0402H10.15V9.38023H12.04V8.47023C12.04 6.93023 12.25 5.81023 12.67 5.32023C13.3 4.41023 14.56 3.99023 16.45 3.99023C16.66 4.06023 16.87 4.06023 17.08 4.06023Z" fill="#AE1332"/>
</symbol>

<symbol id="instagram" viewBox="0 0 28 28">
<path d="M25.1279 9.41152C25.1142 8.47146 24.9401 7.53885 24.6067 6.65964C24.0233 5.15827 22.8354 3.97109 21.3315 3.38991C20.4621 3.06332 19.5428 2.88822 18.6124 2.86835C17.4158 2.81495 17.0364 2.80005 13.9988 2.80005C10.9612 2.80005 10.5719 2.80005 9.38397 2.86835C8.45478 2.88822 7.53554 3.06332 6.66606 3.38991C5.1622 3.97109 3.97304 5.15827 3.3909 6.65964C3.06375 7.52767 2.88712 8.44538 2.86971 9.37302C2.81622 10.5689 2.80005 10.9477 2.80005 13.9802C2.80005 17.0127 2.80005 17.4002 2.86971 18.5873C2.88837 19.5162 3.06375 20.4327 3.3909 21.3032C3.97428 22.8033 5.1622 23.9905 6.66731 24.5717C7.53306 24.9095 8.45229 25.1007 9.38521 25.1305C10.5831 25.1839 10.9625 25.2001 14.0001 25.2001C17.0376 25.2001 17.427 25.2001 18.6149 25.1305C19.5441 25.1119 20.4633 24.9368 21.334 24.6102C22.8379 24.0278 24.0258 22.8406 24.6092 21.3405C24.9363 20.4712 25.1117 19.5547 25.1304 18.6246C25.1839 17.43 25.2001 17.0512 25.2001 14.0174C25.1976 10.9849 25.1976 10.5999 25.1279 9.41152ZM13.9913 19.7149C10.8144 19.7149 8.24083 17.1456 8.24083 13.974C8.24083 10.8024 10.8144 8.23302 13.9913 8.23302C17.1658 8.23302 19.7419 10.8024 19.7419 13.974C19.7419 17.1456 17.1658 19.7149 13.9913 19.7149ZM19.9707 9.35936C19.2281 9.35936 18.6298 8.7608 18.6298 8.02067C18.6298 7.28055 19.2281 6.68199 19.9707 6.68199C20.7108 6.68199 21.3104 7.28055 21.3104 8.02067C21.3104 8.7608 20.7108 9.35936 19.9707 9.35936Z" fill="#AE1332"/>
<path d="M13.9931 17.4789C15.9281 17.4789 17.4966 15.9104 17.4966 13.9754C17.4966 12.0405 15.9281 10.4719 13.9931 10.4719C12.0582 10.4719 10.4896 12.0405 10.4896 13.9754C10.4896 15.9104 12.0582 17.4789 13.9931 17.4789Z" fill="#AE1332"/>
</symbol>

<symbol id="youtube" viewBox="0 0 28 28">
<path fill-rule="evenodd" clip-rule="evenodd" d="M21.21 5.24986C20.02 5.17986 17.57 5.10986 13.86 5.10986H13.37C9.79998 5.10986 7.42001 5.17986 6.23001 5.31986C4.62001 5.45986 3.49998 5.87986 2.86998 6.43986C2.30998 6.92986 1.88999 7.83986 1.74999 9.02986C1.67999 9.79986 1.60999 11.4099 1.60999 13.8599V14.2099C1.60999 16.5199 1.67998 18.1299 1.81998 18.8999C2.02998 20.0199 2.38001 20.8599 3.08001 21.3499C3.78001 21.9099 4.96999 22.2599 6.64999 22.3999C7.83999 22.4699 10.29 22.5399 14 22.5399H14.49C18.06 22.5399 20.44 22.4699 21.63 22.3299C23.24 22.1899 24.36 21.7699 24.99 21.2099C25.55 20.7199 25.97 19.8099 26.11 18.6199C26.18 17.8499 26.25 16.2399 26.25 13.7899V13.4399C26.25 11.1299 26.18 9.51986 26.04 8.74986C25.83 7.62986 25.48 6.78986 24.78 6.29986C24.08 5.73986 22.89 5.38986 21.21 5.24986ZM18.48 13.8599L10.78 18.4799V9.23986L18.48 13.8599Z" fill="#AE1332"/>

<symbol id="icon-check" viewBox="0 0 32 32">
<path d="M26.151 1.405c0.583-0.858 1.554-1.415 2.656-1.415 1.767 0 3.2 1.433 3.2 3.2 0 0.675-0.209 1.301-0.565 1.817l0.007-0.011-17.356 25.6c-1.269 1.872-4.028 1.872-5.297 0l-8.244-12.16c-0.345-0.503-0.551-1.125-0.551-1.796 0-1.767 1.433-3.2 3.2-3.2 1.097 0 2.065 0.552 2.642 1.393l0.007 0.011 5.595 8.253 14.708-21.693z"></path>
</symbol>

<symbol id="icon-checkbox" viewBox="0 0 32 32">
<path stroke-linejoin="miter" stroke-linecap="butt" stroke-miterlimit="4" stroke-width="2" d="M4 1h24c1.657 0 3 1.343 3 3v24c0 1.657-1.343 3-3 3h-24c-1.657 0-3-1.343-3-3v-24c0-1.657 1.343-3 3-3z"></path>
</symbol>

<symbol id="icon-checkbox_confirmed" viewBox="0 0 32 32">
<path d="M19.807 10.527c0.219-0.32 0.582-0.527 0.993-0.527 0.663 0 1.2 0.537 1.2 1.2 0 0.251-0.077 0.485-0.209 0.678l0.003-0.004-6.508 9.6c-0.476 0.702-1.51 0.702-1.986 0l-3.092-4.56c-0.129-0.189-0.207-0.422-0.207-0.673 0-0.663 0.537-1.2 1.2-1.2 0.411 0 0.774 0.207 0.991 0.523l0.003 0.004 2.098 3.095 5.515-8.135z"></path>
<path stroke-linejoin="miter" stroke-linecap="butt" stroke-miterlimit="4" stroke-width="3" d="M8 1.5h16c3.59 0 6.5 2.91 6.5 6.5v16c0 3.59-2.91 6.5-6.5 6.5h-16c-3.59 0-6.5-2.91-6.5-6.5v-16c0-3.59 2.91-6.5 6.5-6.5z"></path>
</symbol>
<symbol id="icon-close" viewBox="0 0 32 32">
<path stroke-linejoin="round" stroke-linecap="round" stroke-miterlimit="4" stroke-width="3.4286" d="M24 8l-16 16M8 8l16 16"></path>
</symbol>
<symbol id="icon-arrow" viewBox="0 0 30 32">
<path d="M29.867 4.588l-4.425-4.425v22.123l-22.123-22.123-3.319 3.318 22.124 22.124h-22.124l4.425 4.425h25.442v-25.442z"></path>
</symbol>
<symbol id="icon-ellipse" viewBox="0 0 80 80">
<path d="M32 16c0 8.837-7.163 16-16 16s-16-7.163-16-16c0-8.837 7.163-16 16-16s16 7.163 16 16z"></path>
</symbol>

</defs>
</svg>
