<svg aria-hidden="true" style="position: absolute; width: 0; height: 0; overflow: hidden;" version="1.1" xmlns="http://www.w3.org/2000/svg" xmlns:xlink="http://www.w3.org/1999/xlink">
<defs>
<symbol id="icon-check" viewBox="0 0 32 32">
<path d="M26.151 1.405c0.583-0.858 1.554-1.415 2.656-1.415 1.767 0 3.2 1.433 3.2 3.2 0 0.675-0.209 1.301-0.565 1.817l0.007-0.011-17.356 25.6c-1.269 1.872-4.028 1.872-5.297 0l-8.244-12.16c-0.345-0.503-0.551-1.125-0.551-1.796 0-1.767 1.433-3.2 3.2-3.2 1.097 0 2.065 0.552 2.642 1.393l0.007 0.011 5.595 8.253 14.708-21.693z"></path>
</symbol>

<symbol id="icon-checkbox" viewBox="0 0 32 32">
<path stroke-linejoin="miter" stroke-linecap="butt" stroke-miterlimit="4" stroke-width="2" d="M4 1h24c1.657 0 3 1.343 3 3v24c0 1.657-1.343 3-3 3h-24c-1.657 0-3-1.343-3-3v-24c0-1.657 1.343-3 3-3z"></path>
</symbol>

<symbol id="icon-checkbox_confirmed" viewBox="0 0 32 32">
<path d="M19.807 10.527c0.219-0.32 0.582-0.527 0.993-0.527 0.663 0 1.2 0.537 1.2 1.2 0 0.251-0.077 0.485-0.209 0.678l0.003-0.004-6.508 9.6c-0.476 0.702-1.51 0.702-1.986 0l-3.092-4.56c-0.129-0.189-0.207-0.422-0.207-0.673 0-0.663 0.537-1.2 1.2-1.2 0.411 0 0.774 0.207 0.991 0.523l0.003 0.004 2.098 3.095 5.515-8.135z"></path>
<path stroke-linejoin="miter" stroke-linecap="butt" stroke-miterlimit="4" stroke-width="3" d="M8 1.5h16c3.59 0 6.5 2.91 6.5 6.5v16c0 3.59-2.91 6.5-6.5 6.5h-16c-3.59 0-6.5-2.91-6.5-6.5v-16c0-3.59 2.91-6.5 6.5-6.5z"></path>
</symbol>
<symbol id="icon-close" viewBox="0 0 32 32">
<path stroke-linejoin="round" stroke-linecap="round" stroke-miterlimit="4" stroke-width="3.4286" d="M24 8l-16 16M8 8l16 16"></path>
</symbol>
<symbol id="icon-arrow" viewBox="0 0 30 32">
<path d="M29.867 4.588l-4.425-4.425v22.123l-22.123-22.123-3.319 3.318 22.124 22.124h-22.124l4.425 4.425h25.442v-25.442z"></path>
</symbol>
<symbol id="icon-ellipse" viewBox="0 0 80 80">
<path d="M32 16c0 8.837-7.163 16-16 16s-16-7.163-16-16c0-8.837 7.163-16 16-16s16 7.163 16 16z"></path>
</symbol>

</defs>
</svg>
